<svg width="16" height="18" viewBox="0 0 16 18" xmlns="http://www.w3.org/2000/svg"><title>Shape</title><path d="M15.635 2.953a1.158 1.158 0 0 0-.865-.382h-1.231v-.964c0-.442-.15-.82-.452-1.135A1.45 1.45 0 0 0 12 0h-.615a1.45 1.45 0 0 0-1.087.472 1.582 1.582 0 0 0-.452 1.135v.964H6.154v-.964c0-.442-.15-.82-.452-1.135A1.45 1.45 0 0 0 4.615 0H4a1.45 1.45 0 0 0-1.086.472 1.583 1.583 0 0 0-.452 1.135v.964H1.231c-.334 0-.622.128-.866.382A1.263 1.263 0 0 0 0 3.857v12.857c0 .348.122.65.365.904.244.255.532.382.866.382h13.538c.334 0 .622-.127.866-.382.243-.254.365-.556.365-.904V3.857c0-.348-.122-.65-.365-.904zm-4.558-1.346a.32.32 0 0 1 .086-.23.293.293 0 0 1 .222-.091H12c.09 0 .163.03.221.09a.32.32 0 0 1 .087.231V4.5a.32.32 0 0 1-.087.231.293.293 0 0 1-.221.09h-.615a.293.293 0 0 1-.222-.09.32.32 0 0 1-.086-.23V1.606zm-7.385 0a.32.32 0 0 1 .087-.23A.293.293 0 0 1 4 1.286h.615c.09 0 .164.03.222.09.057.06.086.138.086.231V4.5a.32.32 0 0 1-.086.231.293.293 0 0 1-.221.09H4a.292.292 0 0 1-.221-.09.32.32 0 0 1-.087-.23V1.606zm11.077 15.107H1.231V6.43h13.538v10.285z" fill="#FFF" fill-rule="evenodd"/></svg>