<svg width="8" height="8" viewBox="0 0 8 8" xmlns="http://www.w3.org/2000/svg"><title>Shape</title><path d="M7.658.353c-.14-.058-.26-.034-.358.071l-.665.66A3.97 3.97 0 0 0 3.929 0c-.532 0-1.04.104-1.525.312a3.962 3.962 0 0 0-1.253.839C.8 1.502.521 1.92.312 2.404A3.822 3.822 0 0 0 0 3.93c0 .532.104 1.04.312 1.524.208.484.488.902.839 1.253.351.351.769.631 1.253.84.485.207.993.311 1.525.311a3.9 3.9 0 0 0 1.672-.37 3.841 3.841 0 0 0 1.351-1.047.168.168 0 0 0 .038-.115.142.142 0 0 0-.048-.105l-.701-.706a.197.197 0 0 0-.128-.046c-.055.007-.094.028-.118.062a2.567 2.567 0 0 1-.915.752 2.58 2.58 0 0 1-1.151.266 2.637 2.637 0 0 1-1.852-.767A2.64 2.64 0 0 1 1.31 3.93a2.638 2.638 0 0 1 .767-1.852 2.64 2.64 0 0 1 1.852-.767c.685 0 1.28.233 1.785.7l-.706.706c-.106.103-.13.22-.072.353.058.137.159.205.302.205H7.53a.315.315 0 0 0 .23-.097.315.315 0 0 0 .097-.23V.654a.306.306 0 0 0-.2-.302z" fill="#FFF" fill-rule="evenodd"/></svg>